<svg width="92" height="83" viewBox="0 0 92 83" fill="none" xmlns="http://www.w3.org/2000/svg">
<path d="M26.0651 21.0001C26.5646 15.6668 25.1661 5.00012 15.5763 5.00012C5.9866 5.00012 4.58809 15.6668 5.08756 21.0001V69.0001C5.08756 72.0001 7.18532 78.0001 15.5763 78.0001C23.9674 78.0001 26.0651 72.0001 26.0651 69.0001V42.0001C28.729 35.8335 38.0523 25.7001 54.0352 34.5001" stroke="#0D6EFD" stroke-width="10" stroke-linecap="round"/>
<path d="M65.9349 62C65.4354 67.3333 66.8339 78 76.4237 78C86.0134 78 87.4119 67.3333 86.9124 62V14C86.9124 11 84.8147 5 76.4237 5C68.0326 5 65.9349 11 65.9349 14L65.9349 41C63.271 47.1667 53.9477 57.3 37.9648 48.5" stroke="#0D6EFD" stroke-width="10" stroke-linecap="round"/>
</svg>
